<svg xmlns="http://www.w3.org/2000/svg" width="31" height="31" viewBox="0 0 31 31">
  <g id="Group_6" data-name="Group 6" transform="translate(-813 -836)">
    <g id="Ellipse_2" data-name="Ellipse 2" transform="translate(813 836)" fill="none" stroke="#23272f" stroke-width="2">
      <circle cx="15.5" cy="15.5" r="15.5" stroke="none"/>
      <circle cx="15.5" cy="15.5" r="14.5" fill="none"/>
    </g>
    <g id="Group_2" data-name="Group 2" transform="translate(820.049 841.7)">
      <path id="Path_2" data-name="Path 2" d="M742.23,216.916a9.63,9.63,0,0,1-3.382-.61.5.5,0,1,1,.353-.942,8.789,8.789,0,0,0,8.6-1.431,10.793,10.793,0,0,1-9.112-4.511,8.174,8.174,0,0,1-1.094-6.133,10.942,10.942,0,0,1,2.028-4.408,8.732,8.732,0,0,0-6.043,9.168.5.5,0,0,1-1,.1,9.737,9.737,0,0,1,8.353-10.591.5.5,0,0,1,.428.851c-2.574,2.614-4.136,6.866-1.823,10.47,1.825,2.843,5.751,4.47,9.55,3.956a.5.5,0,0,1,.443.833A9.794,9.794,0,0,1,742.23,216.916Z" transform="translate(-731.647 -197.551)" fill="#23272f"/>
      <path id="Path_3" data-name="Path 3" d="M724.191,277.563a3.691,3.691,0,1,1,3.69-3.691A3.691,3.691,0,0,1,724.191,277.563Zm0-6.375a2.684,2.684,0,1,0,2.684,2.684A2.684,2.684,0,0,0,724.191,271.188Z" transform="translate(-720.501 -259.132)" fill="#23272f"/>
    </g>
  </g>
</svg>
